<svg xmlns="http://www.w3.org/2000/svg" viewBox="0 0 336 150"><g fill="var(--title,#002b3c)"><path d="M102.8 70.08v-16.3l-1.3-1.68v-.19h5.85v.19l-1.3 1.68v16.15c0 4.55 2.1 6.96 7.15 6.96s7.81-2.49 7.81-7.04V55.08l-1.64-2.98v-.19h4.21v.19l-1.65 2.98v14.88c0 5.17-3.41 8.34-9.64 8.34s-9.49-3.02-9.49-8.23M148.56 51.91v.19l-1.65 2.99v22.84h-3.29l-13.85-23.8h-.34v20.62l1.64 2.99v.19h-4.21v-.19l1.65-2.99V54.09l-1.68-1.99v-.19h5.39l13.77 23.65V55.09l-1.64-2.99v-.19h4.21zM152.31 52.1v-.19h5.85v.19l-1.3 1.69v22.26l1.3 1.69v.19h-5.86v-.19l1.3-1.69.01-22.26-1.3-1.69zM183.6 51.91v.19l-2.06 2.87-7.51 22.96h-3.09l-8.27-23.8-1.56-2.03v-.19h5.2v.19l-.38 1.61 7.76 22.46 6.97-21.35-1.15-2.72v-.19h4.09zM204.99 72.96l-1.76 4.97h-16.8v-.19l1.3-1.69V53.79l-1.3-1.69v-.19h16.07l1.5 4.59h-.46l-4.6-3.78h-7.95v10.82h10.79v1.53h-10.79l-.01 12.06h8.54l5.01-4.17h.46zM212.98 64.19h5.47c2.95 0 4.55-2.03 4.55-5.74 0-3.71-1.64-5.74-4.67-5.74h-5.36v11.48Zm16.45 13.62v.11h-3.83l-10.02-12.89h-2.6v11.02l1.3 1.68v.19h-5.85v-.19l1.3-1.68V53.78l-1.3-1.68v-.19h10.22c4.86 0 7.77 2.56 7.77 6.43 0 3.67-2.6 6.39-6.96 6.66l9.98 12.82ZM231.19 73.07h.42l1.87 1.68c1.87 1.68 3.25 2.6 5.81 2.6 3.98 0 6.01-2.14 6.01-5.39 0-2.3-.88-3.63-2.98-4.74-2.1-1.11-5.13-1.84-7.27-3.02-2.14-1.19-3.21-2.95-3.21-5.62 0-4.17 3.14-6.89 7.88-6.89 1.68 0 3.14.23 4.86.23h1.3l1.41 4.51h-.46l-1.91-1.72c-1.91-1.72-3.1-2.22-5.24-2.22-3.33 0-5.32 1.72-5.32 4.63 0 1.84.84 3.18 2.79 4.21 1.95 1.03 5.09 1.8 7.31 2.98 2.22 1.19 3.37 2.98 3.37 5.93 0 4.74-3.37 7.92-8.61 7.92-1.99 0-3.6-.23-5.43-.23h-1.03l-1.57-4.86ZM252.13 52.1v-.19h5.85v.19l-1.3 1.69v22.26l1.3 1.69v.19h-5.86v-.19l1.3-1.69.01-22.26-1.3-1.69zM282.46 64.96c0-7.84-3.21-12.24-9.03-12.24h-6.01v24.41h6c5.81 0 9.03-4.4 9.03-12.17m3.56-.15c0 7.69-4.94 13.12-12.32 13.12h-10.83v-.19l1.3-1.68V53.79l-1.3-1.68v-.19h10.83c7.46 0 12.32 5.32 12.32 12.89M301.17 67.71l-5.01-12.66-4.86 12.66h9.87Zm8.19 10.02v.19h-5.24v-.19l.38-1.61-2.72-6.93h-11.06l-2.22 5.82 1.15 2.72v.19h-4.09v-.19l2.1-2.87 8.04-20.85-.84-2.1h3.56l9.41 23.84 1.53 1.99ZM330.44 64.96c0-7.84-3.21-12.24-9.03-12.24h-6.01v24.41h6c5.81 0 9.03-4.4 9.03-12.17m3.56-.15c0 7.69-4.94 13.12-12.32 13.12h-10.83v-.19l1.3-1.68V53.79l-1.3-1.68v-.19h10.83c7.46 0 12.32 5.32 12.32 12.89M121.23 99.12c0-7.84-3.21-12.24-9.03-12.24h-6.01v24.41h6c5.81 0 9.03-4.4 9.03-12.17m3.56-.15c0 7.69-4.94 13.12-12.32 13.12h-10.83v-.19l1.3-1.68V87.95l-1.3-1.68v-.19h10.83c7.46 0 12.32 5.32 12.32 12.89M147.63 107.11l-1.76 4.98h-16.79v-.19l1.3-1.69V87.95l-1.3-1.69v-.19h16.07l1.49 4.59h-.46l-4.59-3.79h-7.96V97.7h10.79v1.53h-10.79v12.05h8.53l5.01-4.17h.46zM185.21 87.95l-.01 22.26 1.3 1.69v.19h-5.81v-.19l1.3-1.69V88.29h-.3l-8.85 23.8h-.53l-8.91-23.8h-.35v20.62l1.65 2.99v.19h-4.21v-.19l1.64-2.99V88.25l-1.41-1.99v-.19h5.36l7.76 20.81 7.73-20.81h4.94v.19l-1.3 1.69zM192.55 104.24v-16.3l-1.3-1.68v-.19h5.85v.19l-1.3 1.68v16.15c0 4.55 2.1 6.96 7.15 6.96s7.81-2.49 7.81-7.04V89.24l-1.64-2.98v-.19h4.21v.19l-1.65 2.98v14.88c0 5.17-3.41 8.34-9.64 8.34s-9.49-3.02-9.49-8.23M222.28 98.35h5.47c2.95 0 4.55-2.03 4.55-5.74 0-3.71-1.64-5.74-4.67-5.74h-5.36v11.48Zm16.45 13.62v.11h-3.83l-10.02-12.89h-2.6v11.02l1.3 1.68v.19h-5.85v-.19l1.3-1.68V87.94l-1.3-1.68v-.19h10.22c4.86 0 7.77 2.56 7.77 6.43 0 3.67-2.6 6.39-6.96 6.66l9.98 12.82ZM240.26 99.39c0-8.11 5.28-13.54 12.86-13.54 1.95 0 3.75.23 5.55.23h1.11l1.34 4.55h-.46l-1.87-1.53c-1.87-1.53-3.29-2.45-5.85-2.45-5.59 0-9.18 3.83-9.18 12.17 0 8.15 3.37 12.32 9.33 12.32 3.83 0 6.58-1.72 8.04-3.98l.53.38c-1.34 2.33-4.4 4.94-9.41 4.94-7.12 0-11.97-5.32-11.97-13.09M265.02 86.26v-.19h5.85v.19l-1.3 1.69v22.26l1.3 1.69v.19h-5.86v-.19l1.3-1.69.01-22.26-1.3-1.69zM289.38 101.87l-5.01-12.66-4.86 12.66h9.87Zm8.19 10.02v.19h-5.24v-.19l.38-1.61-2.72-6.93h-11.06l-2.22 5.82 1.15 2.72v.19h-4.09v-.19l2.11-2.87 8.04-20.85-.84-2.1h3.56l9.41 23.84 1.53 1.99Z"/></g><g fill="var(--title,#e94734)"><path d="m28.42 51.79 1.39-.02a2.22 2.22 0 1 0-4.45.05l1.39-.02c0-.22.08-.43.24-.59a.82.82 0 0 1 .59-.25c.45-.01.84.37.85.83M25.55 54.47a.82.82 0 0 1-.1-.63c.05-.22.18-.4.37-.52l-.73-1.19c-.51.31-.86.8-1 1.38a2.23 2.23 0 0 0 3.34 2.41l-.73-1.19a.84.84 0 0 1-1.15-.27M30.09 52.08l-.7 1.2c.19.11.33.29.39.51.06.22.02.44-.09.63a.84.84 0 0 1-.51.39.81.81 0 0 1-.63-.09l-.7 1.2a2.25 2.25 0 0 0 1.69.24 2.21 2.21 0 0 0 1.59-2.72 2.21 2.21 0 0 0-1.03-1.36M58.45 51.79l1.39-.02c0-.6-.24-1.15-.67-1.57a2.17 2.17 0 0 0-1.58-.63 2.24 2.24 0 0 0-2.21 2.25l1.39-.02c0-.22.08-.43.24-.59a.82.82 0 0 1 .59-.25.83.83 0 0 1 .84.83M56.1 54.84a.82.82 0 0 1-.62-1c.05-.22.18-.4.37-.52l-.73-1.19c-.51.31-.86.8-1 1.38a2.2 2.2 0 0 0 .27 1.68 2.2 2.2 0 0 0 1.9 1.06c.41 0 .81-.11 1.17-.33l-.73-1.18a.82.82 0 0 1-.63.1M60.11 52.08l-.7 1.2c.19.11.33.29.39.51.06.22.02.44-.09.63a.84.84 0 0 1-.51.39.81.81 0 0 1-.63-.09l-.7 1.2a2.25 2.25 0 0 0 1.69.24 2.21 2.21 0 0 0 1.59-2.72 2.21 2.21 0 0 0-1.03-1.36M13.16 83.78h7.5v1.39h-7.5zM9.07 90.49H7.68c0 5.16 3.61 11.05 8.05 13.13l.59-1.26c-4-1.88-7.25-7.2-7.25-11.87M26.13 90.47h-1.39c0 4.67-3.25 10-7.25 11.88l.59 1.26c4.52-2.12 8.05-7.9 8.05-13.14M9.56 90.27h1.39a2.63 2.63 0 0 1 5.26 0h1.39a2.63 2.63 0 0 1 5.26 0h1.39a4.02 4.02 0 0 0-7.34-2.26 4.01 4.01 0 0 0-7.34 2.26M39.49 63.53l-.91 1.06c.35.3.62.68.78 1.1l.23.58.6-.17a9 9 0 0 1 4.83.02l.61.17.23-.59c.17-.43.44-.81.79-1.1l-.9-1.06c-.36.31-.67.68-.91 1.09a9.73 9.73 0 0 0-1.42-.21c.12-.36.35-.69.67-.92l-.81-1.13c-.26.18-.48.41-.67.65a3.18 3.18 0 0 0-.67-.65l-.81 1.13c.32.23.54.55.67.91-.48.04-.95.1-1.42.2a4.13 4.13 0 0 0-.91-1.09M22.54 81.4l2.6-2.6.98.98-2.6 2.6zM24.03 82.88l2.6-2.6.98.99-2.6 2.6zM25.53 84.36l1.3-1.3.98 1-1.3 1.29zM13.31 70.62l.99-.99 1.57 1.58-.98.98zM17.11 72.44l-.99.99L17.7 75v-.01l4.78 4.79.99-.99-5.06-5.05-1.3-1.3zM16.11 71.21l1.58-1.58.98.99-1.57 1.57zM13.31 74.01l1.57-1.57.99.98L14.3 75zM41.93 79.91h1.39v1.36h-1.39zM41.93 82.78h1.39v1.37h-1.39zM43.34 81.33h1.41v1.39h-1.41zM40.51 81.33h1.35v1.39h-1.35zM43.91 116.84a34.98 34.98 0 0 0 6.1-12.29l-1.34-.36-.16.5a6.27 6.27 0 0 1-11.92-.5l-1.34.36a7.65 7.65 0 0 0 10.06 5.16c-2.1 1.94-4.9 3.1-7.9 3.1v1.39c3.26 0 6.3-1.22 8.62-3.27a34.05 34.05 0 0 1-3.22 5.06l1.1.85ZM69.47 83.93l-.26 1.37a4.6 4.6 0 0 1 3.52 3.52l1.37-.26a5.95 5.95 0 0 0-4.63-4.63M77.55 93.64l1.37-.26a5.94 5.94 0 0 0-4.63-4.63l-.26 1.37a4.57 4.57 0 0 1 3.52 3.52M64.85 97.03l7.65-7.64.98.98-7.65 7.65zM59.89 91.93l7.5-7.5.98.98-7.5 7.5zM69.94 102l7.53-7.54.99.98-7.53 7.54zM59.95 93.45l-.26 1.37a4.6 4.6 0 0 1 3.52 3.52l1.37-.26a5.95 5.95 0 0 0-4.63-4.63M64.77 98.27l-.26 1.37a4.58 4.58 0 0 1 3.52 3.52l1.37-.26a5.94 5.94 0 0 0-4.63-4.63M41.26 70.27c0-.69.56-1.25 1.25-1.25v-1.39a2.64 2.64 0 0 0-2.64 2.64v4.08c0 .69-.56 1.25-1.25 1.25v1.39a2.64 2.64 0 0 0 2.64-2.64v-4.08ZM39.71 69.03v-1.39a2.64 2.64 0 0 0-2.64 2.64v4.08c0 .69-.56 1.25-1.25 1.25V77a2.64 2.64 0 0 0 2.64-2.64v-4.08c0-.69.56-1.25 1.25-1.25M43.94 75.6v1.39a2.64 2.64 0 0 0 2.64-2.64h-1.39c0 .69-.56 1.25-1.25 1.25M46.93 70.27a2.64 2.64 0 0 0-2.64-2.64v1.39c.69 0 1.25.56 1.25 1.25v1.9c0 .8.36 1.55.98 2.06l.87-1.08c-.3-.24-.46-.59-.46-.97v-1.9ZM13.91 61.13a2.16 2.16 0 1 1 3.72.03l1.19.72a3.57 3.57 0 1 0-6.14-.06l1.21-.69Z"/><path d="M62.51 116.04h-2.04a3.77 3.77 0 0 1-3.77-3.77V96.09h2V94.7h-2v-4.54a3.6 3.6 0 0 1 3.62-3.59h2.85v-1.39h-2.85c-1.39 0-2.68.56-3.62 1.55v-4.69a39.5 39.5 0 0 1 12.76-28.85 39.29 39.29 0 0 1 12.59 28.84 39.42 39.42 0 0 1-19.53 34.01m-22.06 5.34a2.46 2.46 0 0 1-2.19-2.45 3.86 3.86 0 0 0-3.86-3.77v1.39a2.48 2.48 0 0 1 2.47 2.47c.02.77.26 1.48.67 2.08a40.66 40.66 0 0 1-5.98-1.25c.1-.34.41-.59.78-.59h3.21v-1.39h-3.21a2.2 2.2 0 0 0-2.1 1.57 39.08 39.08 0 0 1-4.96-2.03 5.17 5.17 0 0 0 4.68-5.14v-10.45a2.3 2.3 0 0 1 2.29-1.91c.01 0 1.04-.05 2.69.64a19.15 19.15 0 0 0 12.95.91l-.38-1.34a17.59 17.59 0 0 1-12.01-.84 7.93 7.93 0 0 0-3.31-.76c-.83 0-1.61.3-2.23.78v-4.78a5.04 5.04 0 0 0 3.64 1.57h2.27V94.7h-2.27a3.64 3.64 0 0 1-3.64-3.64v-3.82l11.87 11.87.99-.99-3.09-3.09V77.9l-.88.25a14.24 14.24 0 0 0-5.93 3.37c-.44-.12-.9-.2-1.37-.2h-1.59v-2.91c-.07-14.06 5.48-25.22 10.17-32.14.79-1.17 1.64-2.3 2.51-3.37a50 50 0 0 1 2.53 3.4c4.67 6.89 10.22 18.05 10.15 32.11v7.24a14.16 14.16 0 0 0-8.87-7.48l-.89-.25v17.41h1.39V79.8a12.71 12.71 0 0 1 8.36 11.83v3.06h-1.49c-2 0-3.63-1.63-3.63-3.63v-4.98h-1.39v4.98a5.02 5.02 0 0 0 5.02 5.02h1.49V99.32c-.63-.5-1.42-.8-2.29-.8a3.7 3.7 0 0 0-3.64 3.14l1.38.2a2.28 2.28 0 0 1 4.54.33v10.07a5.18 5.18 0 0 0 4.67 5.14 39.97 39.97 0 0 1-4.96 2.03 2.2 2.2 0 0 0-2.1-1.57h-3.21v1.39h3.21c.37 0 .68.25.78.59-1.95.57-3.96.99-6.01 1.26.41-.6.66-1.31.68-2.08a2.48 2.48 0 0 1 2.47-2.47v-1.39a3.86 3.86 0 0 0-3.86 3.77c0 1.3-1.02 2.38-2.31 2.47a45.46 45.46 0 0 1-4.21-.01M3.21 82.03A39.29 39.29 0 0 1 15.8 53.19a39.5 39.5 0 0 1 12.76 28.85v30.24a3.77 3.77 0 0 1-3.77 3.77h-2.05A39.44 39.44 0 0 1 3.21 82.04m13.64-29.78a39.23 39.23 0 0 1 24.2-9.59 48.4 48.4 0 0 0-2.1 2.88c-4.13 6.09-8.92 15.44-10.11 27.16a41.37 41.37 0 0 0-11.98-20.45m17.56 31.9c.49.64.75 1.4.75 2.2v4.13l-5.21-5.21v-2.55h1.58a3.6 3.6 0 0 1 2.88 1.42m3.91 9.49-1.77-1.77v-5.52a5 5 0 0 0-2.26-4.2 12.76 12.76 0 0 1 4.04-2.37v13.86Zm18.09-20.95c-1.19-11.72-5.98-21.07-10.09-27.13l-.04-.06a54.94 54.94 0 0 0-2.09-2.85 39.29 39.29 0 0 1 24.2 9.59 41.22 41.22 0 0 0-11.98 20.44m27.01 9.34c0-22.5-18.31-40.81-40.81-40.81S1.82 59.52 1.82 82.03s17.06 39.52 38.48 40.74h.04a43.47 43.47 0 0 0 4.4.01h.02a40.86 40.86 0 0 0 38.68-40.75"/><path d="m8.77 74.47.93-1.04a2.47 2.47 0 0 1 .76-4.14l-.51-1.3a3.86 3.86 0 0 0-1.18 6.47M9.98 67.94l1.15-.78a2.47 2.47 0 0 1 1.72-3.84l-.18-1.38a3.87 3.87 0 0 0-2.69 6.01M21.13 69.29a2.47 2.47 0 0 1 .76 4.14l.93 1.04A3.88 3.88 0 0 0 21.64 68l-.51 1.3ZM18.73 63.32a2.47 2.47 0 0 1 1.72 3.84l1.15.78a3.88 3.88 0 0 0-2.69-6.01l-.18 1.38ZM67.59 61.13a2.16 2.16 0 1 1 3.72.03l1.19.72a3.57 3.57 0 1 0-6.14-.06l1.21-.69ZM62.71 72.48a2.47 2.47 0 0 1 1.41-3.19l-.51-1.3a3.86 3.86 0 0 0-1.18 6.47l.93-1.04a2.41 2.41 0 0 1-.65-.95M63.65 67.94l1.15-.78a2.48 2.48 0 0 1 1.72-3.84l-.18-1.38a3.87 3.87 0 0 0-2.69 6.01M74.81 69.29a2.47 2.47 0 0 1 .76 4.14l.93 1.04A3.88 3.88 0 0 0 75.32 68l-.51 1.3ZM72.4 63.32a2.47 2.47 0 0 1 1.72 3.84l1.15.78a3.88 3.88 0 0 0-2.69-6.01l-.18 1.38ZM40.75 53.15a2.16 2.16 0 1 1 3.72.03l1.19.72a3.57 3.57 0 1 0-6.14-.06l1.21-.69ZM35.88 64.5a2.47 2.47 0 0 1 1.41-3.19l-.51-1.3a3.86 3.86 0 0 0-1.18 6.47l.93-1.04a2.41 2.41 0 0 1-.65-.95M36.81 59.96l1.15-.78a2.47 2.47 0 0 1 1.72-3.84l-.18-1.38a3.87 3.87 0 0 0-2.69 6.01M47.97 61.31a2.47 2.47 0 0 1 .76 4.14l.93 1.04a3.88 3.88 0 0 0-1.18-6.47l-.51 1.3ZM45.57 55.34a2.47 2.47 0 0 1 1.72 3.84l1.15.78a3.88 3.88 0 0 0-2.69-6.01l-.18 1.38Z"/></g></svg>